# xmcd CD database file generated by OrangeCD 5.2
#
# Track frame offsets:
#	150
#	10859
#	22677
#	60627
#	71136
#	86199
#	95059
#	106713
#	113933
#	129393
#	141405
#	153195
#	188216
#	193631
#	215580
#	231008
#	236553
#	249581
#	255523
#	285223
#	321210
#
# Disc length: 4482 seconds
#
# Revision: 0
# Processed by: cddbd v1.5.1PL0 Copyright (c) Steve Scherf et al.
# Submitted via: OrangeCD 5.2
#
DISCID=21118015
DTITLE=Johnny Cash - The ABC Show Series Volume 7
DYEAR=2000
DGENRE=Country
TTITLE0=Opening/Mama Tried
TTITLE1=Johnny Cash and Marty Robbins - The Streets Of Laredo
TTITLE2=Ride This Train/Gold Fever
TTITLE3=Johnny Cash and Peggy Lee - Cause I'm A Woman
TTITLE4=Johnny Cash and Peggy Lee - For The Good Times
TTITLE5=All Over Again
TTITLE6=He'll Have To Go
TTITLE7=Johnny Cash and June Carter Cash - Foggy Mountain Top
TTITLE8=Just A Closer Walk With Thee
TTITLE9=Opening/Destiny's Child
TTITLE10=Johnny Cash and Stevie Wonder - Get Rhythm
TTITLE11=Ride This Train:Ride, Ride, Ride/Ever Westward With The California Mai
TTITLE11=l
TTITLE12=Johnny Cash and June Carter Cash - Big Midnight Special
TTITLE13=Blowin' In The Wind
TTITLE14=Opening/25 Minutes To Go
TTITLE15=Johnny Cash and Homer and Jethro - Guess Things Happen That Way
TTITLE16=Portrait Of My Woman
TTITLE17=Daddy Sang Bass
TTITLE18=Johnny Cash and The Carter Family, Merle Haggard And Bonnie Owens - Sing
TTITLE18=Me Back Home/Swinging Doors/Mama Tried
TTITLE19=Ride This Train:Fireball Mall/Wreck Of The Old Number9/Casey Jones
TTITLE20=Put Your Hand In The Hand
EXTD=
EXTT0=
EXTT1=
EXTT2=
EXTT3=
EXTT4=
EXTT5=
EXTT6=
EXTT7=
EXTT8=
EXTT9=
EXTT10=
EXTT11=
EXTT12=
EXTT13=
EXTT14=
EXTT15=
EXTT16=
EXTT17=
EXTT18=
EXTT19=
EXTT20=
PLAYORDER=
